<svg xmlns="http://www.w3.org/2000/svg" viewBox="0 0 1000 1000" width="1000" height="1000"><style>tspan { white-space:pre }.shp0 { fill: #FFF } </style><g ><path class="shp0" d="M251.02 991.01L307.85 915.81L723.73 958.83L760.09 988.52L251.02 991.01Z" /><path class="shp0" d="M759.75 990.4L713.7 961.03L873.47 512.35L918.34 500L759.75 990.4Z" /><path class="shp0" d="M919.25 500L872.16 519.54L699.54 284.64L752.03 241.37L919.25 500Z" /><path class="shp0" d="M752.58 243.97L704.82 286.39L574.15 202.85L613.55 154.17L752.58 243.97Z" /><path class="shp0" d="M617.01 158.11L575.04 206.02L490.69 109.99L500 13.83L617.01 158.11Z" /><path class="shp0" d="M500 11.11L491.9 109.79L318.45 389.06L250.72 341.09L500 11.11Z" /><path class="shp0" d="M251.07 340.21L321.36 384.03L170.92 759.95L72.79 798.53L251.07 340.21Z" /><path class="shp0" d="M71.69 798.33L169.73 754.89L320.71 923.57L251.44 991.65L71.69 798.33Z" /></g><path class="shp0" d="M558.87 639.08C542.98 661.8 160.13 831.12 159.64 759.34C159.16 687.56 449.15 105.39 476.87 105.2C504.59 105.01 499.51 181.65 500 253.43C500.49 325.21 650.31 508.37 558.87 639.08Z" /><path class="shp0" d="M638.99 975.19C514.01 975.19 107.15 899.63 153.55 783.59C199.91 667.64 392.36 583.84 517.34 583.84C642.31 583.84 454.04 754.56 582.22 850.17C712.8 947.58 763.97 975.19 638.99 975.19Z" /></svg>
