 <svg version="1.0" xmlns="http://www.w3.org/2000/svg"  width="30.000000pt" height="30.000000pt" viewBox="0 0 30.000000 30.000000"  preserveAspectRatio="xMidYMid meet">  <g transform="translate(0.000000,30.000000) scale(0.100000,-0.100000)" fill="#FFF" stroke="none"> <path d="M106 238 c-9 -12 -16 -35 -16 -50 0 -16 -5 -28 -11 -28 -15 0 -6 -84 11 -105 13 -16 86 -21 106 -7 33 22 48 117 20 128 -8 3 -18 19 -21 35 -11 49 -63 65 -89 27z m52 -46 c2 -15 -2 -22 -12 -22 -11 0 -16 9 -16 26 0 31 23 28 28 -4z m52 -63 c0 -42 -15 -65 -46 -73 -41 -11 -74 16 -74 61 0 20 3 34 6 31 3 -3 17 -2 32 2 15 5 39 9 55 9 24 1 27 -3 27 -30z"></path> <path d="M132 105 c1 -27 6 -35 20 -35 15 0 17 5 12 28 -13 55 -34 60 -32 7z"></path> </g> </svg>
